<?xml version="1.0" encoding="UTF-8"?>
<svg version="1.1" viewBox="0 0 42.241 50.649" xml:space="preserve" xmlns="http://www.w3.org/2000/svg"><style>.accent {  }
.text {  }
</style><g transform="matrix(1.3333 0 0 -1.3333 -11.879 803.82)" style="mix-blend-mode:normal"><g><g transform="translate(-.090499 -.1317)"><g id="antenna" class="text" transform="translate(-29.848 24.16)"><path d="m54.688 559.01c-1.424 0-2.583-1.159-2.583-2.583s1.159-2.583 2.583-2.583 2.583 1.159 2.583 2.583-1.159 2.583-2.583 2.583"/><path d="m38.848 572.27 2.685-2.685c3.37 3.371 8.023 5.458 13.155 5.458s9.785-2.087 13.156-5.458l2.685 2.685c-4.058 4.058-9.662 6.572-15.841 6.572-6.178 0-11.781-2.514-15.84-6.572"/><path d="m43.681 567.44 2.685-2.685c2.132 2.132 5.076 3.453 8.322 3.453 3.247 0 6.191-1.321 8.323-3.453l2.685 2.685c-2.82 2.82-6.714 4.567-11.008 4.567s-8.187-1.747-11.007-4.567"/><path d="m48.513 562.6 2.685-2.685c0.894 0.894 2.128 1.448 3.49 1.448s2.596-0.554 3.49-1.448l2.685 2.685c-1.582 1.582-3.767 2.562-6.175 2.562-2.409 0-4.593-0.98-6.175-2.562"/></g><path id="open_o" class="accent" d="m34.353 587.52c1.421-1.946 2.263-4.341 2.263-6.93 0-6.493-5.283-11.775-11.776-11.775s-11.776 5.282-11.776 11.775c0 2.589 0.842 4.984 2.264 6.93l-2.708 2.708c-2.098-2.654-3.354-6.001-3.354-9.638 0-8.587 6.986-15.574 15.574-15.574s15.575 6.987 15.575 15.574c0 3.637-1.257 6.984-3.354 9.638z"/></g><g id="copyright" class="text" transform="translate(160.2 586.55)"><path d="m0 0c0-0.242-0.045-0.467-0.136-0.676s-0.215-0.392-0.372-0.549c-0.158-0.158-0.342-0.282-0.554-0.372-0.212-0.091-0.438-0.137-0.681-0.137-0.242 0-0.467 0.046-0.676 0.137-0.209 0.09-0.392 0.214-0.549 0.372-0.158 0.157-0.282 0.34-0.372 0.549-0.091 0.209-0.137 0.434-0.137 0.676s0.046 0.469 0.137 0.681c0.09 0.212 0.214 0.396 0.372 0.554 0.157 0.157 0.34 0.281 0.549 0.372s0.434 0.136 0.676 0.136c0.243 0 0.469-0.045 0.681-0.136s0.396-0.215 0.554-0.372c0.157-0.158 0.281-0.342 0.372-0.554s0.136-0.439 0.136-0.681m-0.281 0c0 0.2-0.038 0.389-0.114 0.568-0.076 0.178-0.18 0.334-0.313 0.467s-0.289 0.238-0.468 0.313c-0.178 0.076-0.367 0.114-0.567 0.114s-0.389-0.038-0.567-0.114c-0.178-0.075-0.335-0.18-0.467-0.313-0.134-0.133-0.238-0.289-0.314-0.467-0.076-0.179-0.113-0.368-0.113-0.568 0-0.199 0.037-0.389 0.113-0.567 0.076-0.179 0.18-0.334 0.314-0.468 0.132-0.133 0.289-0.237 0.467-0.313s0.367-0.113 0.567-0.113 0.389 0.037 0.567 0.113c0.179 0.076 0.335 0.18 0.468 0.313 0.133 0.134 0.237 0.289 0.313 0.468 0.076 0.178 0.114 0.368 0.114 0.567m-1.126-0.717v0.409c0 0.078-0.017 0.134-0.05 0.167-0.033 0.034-0.098 0.05-0.195 0.05h-0.354v-0.626h-0.327v1.589h0.808c0.151 0 0.271-0.044 0.358-0.132 0.088-0.088 0.132-0.198 0.132-0.331 0-0.085-0.02-0.159-0.059-0.223-0.039-0.063-0.098-0.11-0.177-0.14 0.073-0.025 0.123-0.059 0.15-0.105 0.027-0.045 0.041-0.113 0.041-0.204v-0.454zm-0.599 1.316v-0.426h0.417c0.085 0 0.147 0.019 0.186 0.059 0.04 0.039 0.06 0.089 0.06 0.149 0 0.067-0.018 0.12-0.055 0.159-0.036 0.039-0.097 0.059-0.182 0.059z"/></g></g></g></svg>
