<?xml version="1.0" encoding="UTF-8"?>
<svg version="1.1" viewBox="0 0 151.95 33.608" xml:space="preserve" xmlns="http://www.w3.org/2000/svg" xmlns:xlink="http://www.w3.org/1999/xlink"><g transform="matrix(1.3333 0 0 -1.3333 -61.646 784.37)" style="mix-blend-mode:normal"><g id="openwrt" class="text" transform="translate(-29.848,24.16)"><path id="O__" d="m91.335 559.82c1.727-1.719 2.59-3.816 2.59-6.293 0-2.459-0.863-4.544-2.59-6.254s-3.837-2.565-6.331-2.565c-2.493 0-4.603 0.855-6.33 2.565-1.726 1.71-2.59 3.795-2.59 6.254 0 2.477 0.864 4.574 2.59 6.293 1.727 1.718 3.837 2.577 6.33 2.577 2.494 0 4.604-0.859 6.331-2.577m-2.452-10.285c1.054 1.061 1.58 2.392 1.58 3.992 0 1.601-0.526 2.94-1.58 4.018-1.052 1.079-2.345 1.618-3.879 1.618-1.532 0-2.826-0.539-3.878-1.618-1.053-1.078-1.58-2.417-1.58-4.018 0-1.6 0.527-2.931 1.58-3.992 1.052-1.062 2.346-1.592 3.878-1.592 1.534 0 2.827 0.53 3.879 1.592"/><path id="p__" d="m108.54 556.17c1.238-1.272 1.857-2.868 1.857-4.789 0-1.92-0.615-3.512-1.845-4.776-1.229-1.263-2.679-1.895-4.346-1.895-1.651 0-3.041 0.455-4.17 1.365v-5.282h-3.335v16.906h3.335v-1.011c1.112 0.927 2.502 1.39 4.17 1.39 1.651 0 3.096-0.636 4.334-1.908m-2.375-7.531c0.665 0.683 0.998 1.597 0.998 2.742 0 1.146-0.333 2.064-0.998 2.755-0.666 0.691-1.513 1.036-2.541 1.036-0.943 0-1.777-0.354-2.501-1.062-0.725-0.707-1.087-1.617-1.087-2.729 0-1.111 0.362-2.017 1.087-2.716 0.724-0.699 1.558-1.049 2.501-1.049 1.028 0 1.875 0.341 2.541 1.023"/><path id="e__" d="m124.83 550.5h-9.603c0.169-0.893 0.543-1.604 1.125-2.135 0.581-0.531 1.259-0.797 2.034-0.797 1.432 0 2.477 0.557 3.133 1.669l2.982-0.632c-0.539-1.281-1.339-2.249-2.4-2.906-1.062-0.658-2.3-0.986-3.715-0.986-1.819 0-3.352 0.623-4.599 1.87s-1.87 2.847-1.87 4.801c0 1.955 0.627 3.559 1.882 4.814 1.256 1.256 2.801 1.883 4.637 1.883 1.719 0 3.197-0.602 4.436-1.806 1.238-1.205 1.891-2.751 1.958-4.638zm-8.327 4.069c-0.598-0.405-0.989-0.978-1.174-1.719h6.089c-0.202 0.775-0.572 1.356-1.111 1.744-0.539 0.387-1.163 0.581-1.871 0.581-0.69 0-1.335-0.202-1.933-0.606"/><path id="n__" d="m138.32 556.6c0.927-0.985 1.39-2.261 1.39-3.828v-7.683h-3.336v6.975c0 0.893-0.231 1.609-0.695 2.148-0.463 0.539-1.082 0.809-1.857 0.809-2.089 0-3.134-1.449-3.134-4.347v-5.585h-3.335v12.61h3.335v-1.137c1.011 1.011 2.334 1.517 3.968 1.517 1.516 0 2.738-0.493 3.664-1.479"/><path id="W__" d="m160.28 545.09h-3.689l-3.285 11.422-3.311-11.422h-3.664l-4.928 16.931h3.588l3.235-11.675 3.412 11.675h3.31l3.412-11.675 3.234 11.675h3.614z"/><path d="m175.59 557.77-0.177-3.209h-0.733c-2.999 0-4.498-1.803-4.498-5.408v-4.068h-3.336v12.609h3.336v-2.299c1.146 1.651 2.654 2.476 4.524 2.476 0.387 0 0.682-0.033 0.884-0.101"/><path id="t__" d="m187.11 545.64c-1.162-0.624-2.257-0.935-3.285-0.935-1.55 0-2.763 0.417-3.639 1.251s-1.314 2.093-1.314 3.778v5.231h-2.704v2.729h2.704v3.816h3.336v-3.816h4.119v-2.729h-4.119v-4.978c0-1.449 0.615-2.174 1.844-2.174 0.641 0 1.34 0.203 2.098 0.607z"/></g><g id="copyright" class="text" transform="translate(160.2,586.55)"><path d="m0 0c0-0.242-0.045-0.467-0.136-0.676s-0.215-0.392-0.372-0.549c-0.158-0.158-0.342-0.282-0.554-0.372-0.212-0.091-0.438-0.137-0.681-0.137-0.242 0-0.467 0.046-0.676 0.137-0.209 0.09-0.392 0.214-0.549 0.372-0.158 0.157-0.282 0.34-0.372 0.549-0.091 0.209-0.137 0.434-0.137 0.676s0.046 0.469 0.137 0.681c0.09 0.212 0.214 0.396 0.372 0.554 0.157 0.157 0.34 0.281 0.549 0.372s0.434 0.136 0.676 0.136c0.243 0 0.469-0.045 0.681-0.136s0.396-0.215 0.554-0.372c0.157-0.158 0.281-0.342 0.372-0.554s0.136-0.439 0.136-0.681m-0.281 0c0 0.2-0.038 0.389-0.114 0.568-0.076 0.178-0.18 0.334-0.313 0.467s-0.289 0.238-0.468 0.313c-0.178 0.076-0.367 0.114-0.567 0.114s-0.389-0.038-0.567-0.114c-0.178-0.075-0.335-0.18-0.467-0.313-0.134-0.133-0.238-0.289-0.314-0.467-0.076-0.179-0.113-0.368-0.113-0.568 0-0.199 0.037-0.389 0.113-0.567 0.076-0.179 0.18-0.334 0.314-0.468 0.132-0.133 0.289-0.237 0.467-0.313s0.367-0.113 0.567-0.113 0.389 0.037 0.567 0.113c0.179 0.076 0.335 0.18 0.468 0.313 0.133 0.134 0.237 0.289 0.313 0.468 0.076 0.178 0.114 0.368 0.114 0.567m-1.126-0.717v0.409c0 0.078-0.017 0.134-0.05 0.167-0.033 0.034-0.098 0.05-0.195 0.05h-0.354v-0.626h-0.327v1.589h0.808c0.151 0 0.271-0.044 0.358-0.132 0.088-0.088 0.132-0.198 0.132-0.331 0-0.085-0.02-0.159-0.059-0.223-0.039-0.063-0.098-0.11-0.177-0.14 0.073-0.025 0.123-0.059 0.15-0.105 0.027-0.045 0.041-0.113 0.041-0.204v-0.454zm-0.599 1.316v-0.426h0.417c0.085 0 0.147 0.019 0.186 0.059 0.04 0.039 0.06 0.089 0.06 0.149 0 0.067-0.018 0.12-0.055 0.159-0.036 0.039-0.097 0.059-0.182 0.059z"/></g><g id="freedom" class="accent"><use transform="translate(8.8804)" width="100%" height="100%" xlink:href="#E_"/><use transform="translate(34.277)" width="100%" height="100%" xlink:href="#E_"/><use transform="translate(38.821)" width="100%" height="100%" xlink:href="#E_"/><path id="W_" d="m77.991 563.17h-0.975l-0.617 2.28-0.622-2.28h-0.97l-1.052 3.69h0.931l0.645-2.324 0.633 2.324h0.865l0.633-2.324 0.645 2.324h0.936z"/><path id="I_" d="m80.498 563.17h0.909v3.69h-0.909z"/><path id="R_" d="m85.434 563.17-1.113 1.267h-0.264v-1.267h-0.909v3.69h1.867c0.4 0 0.722-0.111 0.964-0.333 0.243-0.222 0.364-0.513 0.364-0.873 0-0.301-0.087-0.555-0.259-0.763-0.173-0.207-0.409-0.344-0.711-0.41l1.157-1.311zm-0.518 2.027c0.162 0 0.291 0.041 0.389 0.121 0.097 0.081 0.146 0.189 0.146 0.325 0 0.133-0.049 0.239-0.146 0.32-0.098 0.08-0.227 0.121-0.389 0.121h-0.859v-0.887z"/><path id="E_" d="m90.865 563.17h-2.875v3.69h2.858v-0.782h-1.949v-0.694h1.79v-0.738h-1.79v-0.694h1.966z"/><path id="L_" d="m95.261 563.17h-2.727v3.69h0.91v-2.897h1.817z"/><path id="S_" d="m103.88 566.66c0.272-0.189 0.442-0.451 0.512-0.785l-0.892-0.182c-0.033 0.165-0.111 0.293-0.232 0.383-0.12 0.09-0.259 0.135-0.413 0.135-0.147 0-0.266-0.036-0.358-0.107-0.092-0.072-0.138-0.161-0.138-0.268 0-0.161 0.1-0.264 0.298-0.308l0.765-0.171c0.676-0.15 1.014-0.509 1.014-1.074 0-0.378-0.145-0.672-0.435-0.881s-0.652-0.314-1.085-0.314c-0.43 0-0.794 0.098-1.093 0.294-0.3 0.197-0.473 0.471-0.521 0.824l0.936 0.181c0.089-0.363 0.331-0.545 0.727-0.545 0.169 0 0.303 0.035 0.4 0.105s0.146 0.162 0.146 0.275c0 0.088-0.025 0.158-0.075 0.21-0.049 0.051-0.138 0.09-0.267 0.115l-0.771 0.166c-0.661 0.15-0.991 0.506-0.991 1.068 0 0.357 0.134 0.639 0.402 0.849 0.268 0.209 0.62 0.313 1.057 0.313 0.405 0 0.742-0.094 1.014-0.283"/><path id="F_" d="m113.94 565.28h1.729v-0.793h-1.729v-1.322h-0.909v3.69h2.853v-0.798h-1.944z"/><path id="D_" d="m132.82 566.86c0.606 0 1.094-0.17 1.465-0.51 0.371-0.339 0.556-0.785 0.556-1.335 0-0.551-0.185-0.996-0.556-1.336s-0.859-0.509-1.465-0.509h-1.46v3.69zm-0.033-2.903c0.345 0 0.621 0.097 0.829 0.289 0.207 0.193 0.311 0.449 0.311 0.769 0 0.319-0.104 0.575-0.311 0.768-0.208 0.193-0.484 0.289-0.829 0.289h-0.518v-2.115z"/><path id="O_" d="m139.69 566.38c0.38-0.375 0.57-0.832 0.57-1.372 0-0.536-0.19-0.99-0.57-1.363s-0.845-0.559-1.396-0.559-1.016 0.186-1.396 0.559-0.57 0.827-0.57 1.363c0 0.54 0.19 0.997 0.57 1.372 0.38 0.374 0.845 0.562 1.396 0.562s1.016-0.188 1.396-0.562m-0.641-2.151c0.202 0.207 0.303 0.467 0.303 0.779 0 0.316-0.101 0.579-0.303 0.788-0.203 0.209-0.454 0.314-0.755 0.314s-0.553-0.105-0.754-0.314c-0.203-0.209-0.304-0.472-0.304-0.788 0-0.312 0.101-0.572 0.304-0.779 0.201-0.208 0.453-0.312 0.754-0.312s0.552 0.104 0.755 0.312"/><path id="M_" d="m146.13 563.17h-0.881v1.84l-0.964-1.84h-0.562l-0.969 1.851v-1.851h-0.882v3.69h0.892l1.24-2.286 1.239 2.286h0.887z"/><use transform="translate(34.309,1.5417e-4)" width="100%" height="100%" xlink:href="#R_"/><use transform="translate(4.4289)" width="100%" height="100%" xlink:href="#S_"/></g></g></svg>
