<svg viewBox="0 0 92 25" fit="" height="100%" width="100%" preserveAspectRatio="xMidYMid meet" focusable="false" fill="white"  xmlns="http://www.w3.org/2000/svg">
  <g id="openwrt_svg">
   <path id="svg_26" d="m12.804117,8.058677l0,3.417166q0,3.842595 -1.63781,5.918511a5.329089,5.329089 0 0 1 -3.647442,2.013329a7.816702,7.816702 0 0 1 -1.007457,0.062586a6.706783,6.706783 0 0 1 -2.071162,-0.304746a5.366852,5.366852 0 0 1 -2.5127,-1.713072q-1.682703,-2.018082 -1.747138,-5.705928l0,-3.533096a13.795158,13.795158 0 0 1 0.179045,-2.2951q0.212054,-1.254633 0.674983,-2.263146a6.754845,6.754845 0 0 1 0.809398,-1.340987a5.404351,5.404351 0 0 1 3.961959,-2.1047a7.710014,7.710014 0 0 1 0.68,-0.029313q2.965593,0 4.622681,2.043962a6.829051,6.829051 0 0 1 1.169336,2.210859q0.315573,0.969165 0.44233,2.142463a15.267127,15.267127 0 0 1 0.083977,1.481212zm-2.359799,3.64929l0,-3.520156q0,-2.746673 -0.82762,-4.194083a3.867683,3.867683 0 0 0 -0.145771,-0.235293a3.175799,3.175799 0 0 0 -2.310152,-1.405686a4.889136,4.889136 0 0 0 -0.674983,-0.044893q-1.947045,0 -2.946315,1.469857a4.945648,4.945648 0 0 0 -0.610812,1.29847q-0.391891,1.240373 -0.401398,3.020521a16.556883,16.556883 0 0 0 0,0.013732l0,3.365407a13.265682,13.265682 0 0 0 0.092691,1.625399q0.099293,0.801476 0.304482,1.457709a5.102774,5.102774 0 0 0 0.602097,1.300847a3.220956,3.220956 0 0 0 2.331542,1.464311a4.622153,4.622153 0 0 0 0.653328,0.044365a4.458161,4.458161 0 0 0 1.185709,-0.148148a3.038479,3.038479 0 0 0 1.754269,-1.244334a4.598122,4.598122 0 0 0 0.557732,-1.16247q0.376047,-1.138175 0.428334,-2.800281a16.963827,16.963827 0 0 0 0.006866,-0.305274z"/>
   <path id="svg_25" d="m25.899783,11.385529l0,1.521616q0,3.14411 -1.07374,4.76766a4.251916,4.251916 0 0 1 -0.119099,0.170858a3.829656,3.829656 0 0 1 -2.778362,1.592653a5.331466,5.331466 0 0 1 -0.593383,0.031953a4.428848,4.428848 0 0 1 -1.439488,-0.222618a3.610471,3.610471 0 0 1 -1.797049,-1.363433l0,6.692258l-2.269484,0l0,-19.315703l2.063239,0l0.11593,1.547232a4.010549,4.010549 0 0 1 1.090113,-1.164583q0.81468,-0.565655 1.904001,-0.631938a4.840809,4.840809 0 0 1 0.293919,-0.008715a5.21712,5.21712 0 0 1 1.381391,0.172179a3.606246,3.606246 0 0 1 2.048451,1.426812q1.11256,1.567566 1.171713,4.659916a17.933256,17.933256 0 0 1 0.001849,0.123852zm-2.269484,1.611931l0,-1.392746q0,-2.096249 -0.576218,-3.210129a3.000187,3.000187 0 0 0 -0.145771,-0.25193a2.354781,2.354781 0 0 0 -1.608762,-1.052086a3.792421,3.792421 0 0 0 -0.712218,-0.063379a2.533562,2.533562 0 0 0 -2.054789,0.969694a3.854743,3.854743 0 0 0 -0.43388,0.667853l0,7.259762a3.416374,3.416374 0 0 0 0.622959,0.860101q0.74021,0.72727 1.855938,0.738625a3.487411,3.487411 0 0 0 0.035386,0a3.372273,3.372273 0 0 0 0.917406,-0.117251a2.327845,2.327845 0 0 0 1.358416,-0.99795a3.691807,3.691807 0 0 0 0.416451,-0.906315q0.28494,-0.898657 0.320326,-2.208746a13.867779,13.867779 0 0 0 0.004753,-0.295503z"/>
   <path id="svg_24" d="m28.099602,13.358454l0,-1.689305q0,-2.235946 0.698486,-3.780009a5.637004,5.637004 0 0 1 0.662043,-1.113352a4.395574,4.395574 0 0 1 3.204848,-1.74529a6.182588,6.182588 0 0 1 0.59259,-0.027728a6.097027,6.097027 0 0 1 1.442393,0.160031a3.877454,3.877454 0 0 1 2.219574,1.40014q1.163527,1.498113 1.233771,4.600499a17.600518,17.600518 0 0 1 0.003961,0.260909l0,1.495736l-7.788181,0l0,0.322175q0,2.243605 0.844521,3.262417a2.737958,2.737958 0 0 0 1.640451,0.946719a4.131496,4.131496 0 0 0 0.790121,0.071829a4.514937,4.514937 0 0 0 0.932459,-0.092163a3.516459,3.516459 0 0 0 0.840559,-0.288109q0.744699,-0.369181 1.398556,-1.157717a6.285579,6.285579 0 0 0 0.039348,-0.048062l1.186237,1.444241a4.800405,4.800405 0 0 1 -3.185306,1.974245a7.452538,7.452538 0 0 1 -1.340723,0.11461a6.977198,6.977198 0 0 1 -1.613251,-0.175348q-1.293981,-0.307387 -2.16755,-1.153492a4.414588,4.414588 0 0 1 -0.216544,-0.224994q-1.392482,-1.553569 -1.418362,-4.557982zm2.282424,-2.398354l5.493081,0l0,-0.309499q-0.076054,-1.672404 -0.531589,-2.5399a2.328638,2.328638 0 0 0 -0.184062,-0.296823q-0.625336,-0.851123 -1.901888,-0.851123a3.256343,3.256343 0 0 0 -0.842672,0.102462a2.176001,2.176001 0 0 0 -1.259123,0.871193a3.325531,3.325531 0 0 0 -0.399814,0.796459q-0.283355,0.793554 -0.359674,1.96289a12.512532,12.512532 0 0 0 -0.01426,0.264342z"/>
   <path id="svg_23" d="m40.576534,5.260774l2.15329,0l0.064435,1.508676a4.733858,4.733858 0 0 1 1.143457,-1.106486a3.948226,3.948226 0 0 1 2.24783,-0.660194q3.700786,0 3.752281,4.938518l0,9.271242l-2.269484,0l0,-9.167987q0,-1.358416 -0.376839,-2.06456a1.734463,1.734463 0 0 0 -0.171122,-0.263021a1.758758,1.758758 0 0 0 -1.008777,-0.621639a2.777042,2.777042 0 0 0 -0.635371,-0.068132a2.315962,2.315962 0 0 0 -1.527954,0.567503a3.862929,3.862929 0 0 0 -0.834486,0.99214a4.826813,4.826813 0 0 0 -0.255099,0.490656l0,10.13504l-2.28216,0l0,-13.951756z"/>
   <path id="svg_38" d="m63.857215,0.4441l2.403329,11.826121l1.939357,-11.826121l4.089689,0l-3.63982,18.81835l-4.146102,0l-2.388938,-11.08947l-2.361307,11.08947l-4.159918,0l-3.653923,-18.81835l4.117895,0l1.925253,11.813151l2.403329,-11.813151l3.471155,0z"/>
   <path id="svg_37" d="m81.559944,5.187466l-0.04231,3.618934l-1.320823,-0.103496a2.838231,2.610175 0 0 0 -0.875272,0.116202q-0.926217,0.275285 -1.331185,1.202253l0,9.241093l-3.991541,0l0,-13.984458l3.752359,0l0.112539,1.512212a4.761182,4.378614 0 0 1 0.550895,-0.815795q0.408998,-0.470101 0.911826,-0.708858a2.442185,2.245952 0 0 1 1.137192,-0.246168a4.092567,3.763723 0 0 1 0.434038,0.019852q0.216731,0.02144 0.399212,0.065645a1.840345,1.692471 0 0 1 0.263071,0.082585z"/>
   <path id="svg_36" d="m85.245228,1.839846l3.977149,0l0,3.438146l2.037793,0l0,2.752846l-2.037793,0l0,6.940613a5.168164,4.752895 0 0 0 0.015255,0.378516q0.031373,0.36184 0.128945,0.585244a0.869228,0.799384 0 0 0 0.101602,0.173641q0.235728,0.29699 0.890527,0.309695a2.810312,2.584499 0 0 0 0.05814,0.000529a5.558741,5.112088 0 0 0 0.371293,-0.010853q0.175573,-0.010853 0.325529,-0.032558a2.367639,2.177395 0 0 0 0.244938,-0.047116l-0.028207,2.843372a6.033651,5.548838 0 0 1 -1.755725,0.336694a7.065499,6.497776 0 0 1 -0.436629,0.012176a4.78392,4.399525 0 0 1 -1.635991,-0.236109q-2.224878,-0.742739 -2.256827,-3.822221l0,-7.431626l-1.756877,0l0,-2.752846l1.756877,0l0,-3.438146z"/>
  </g>
</svg>